<svg width="20" height="22" viewBox="0 0 20 22" fill="none" xmlns="http://www.w3.org/2000/svg">
<path d="M10 3.06982C14.9699 3.06982 18.9998 7.09999 19 12.0698C19 17.0398 14.97 21.0698 10 21.0698C5.02 21.0698 1 17.0398 1 12.0698C1.00019 7.09999 5.03012 3.06982 10 3.06982ZM10 5.06982C6.13012 5.06982 3.00019 8.19999 3 12.0698C3 15.9398 6.13 19.0698 10 19.0698C13.87 19.0698 17 15.9398 17 12.0698C16.9998 8.19999 13.8699 5.06982 10 5.06982ZM10.5 7.06982V12.3198L14.5 14.6899L13.75 15.9204L9 13.0698V7.06982H10.5ZM19.999 4.79053L18.709 6.31982L14.1094 2.46045L15.3994 0.930176L19.999 4.79053ZM5.87988 2.46045L1.29004 6.31006L0 4.77979L4.59961 0.930176L5.87988 2.46045Z" fill="black"/>
</svg>
